<mxfile host="app.diagrams.net" modified="2020-10-10T01:24:36.888Z" agent="5.0 (Macintosh; Intel Mac OS X 10_15_6) AppleWebKit/537.36 (KHTML, like Gecko) Chrome/85.0.4183.121 Safari/537.36" etag="Pbd9WrahM7FtASFdJfK-" version="13.7.9" type="github">
  <diagram id="R2lEEEUBdFMjLlhIrx00" name="Page-1">
    <mxGraphModel dx="946" dy="591" grid="1" gridSize="10" guides="1" tooltips="1" connect="1" arrows="1" fold="1" page="1" pageScale="1" pageWidth="850" pageHeight="1100" math="0" shadow="0" extFonts="Permanent Marker^https://fonts.googleapis.com/css?family=Permanent+Marker">
      <root>
        <mxCell id="0" />
        <mxCell id="1" parent="0" />
        <mxCell id="RUbN_Ij-Akxd5s_pRf9d-20" value="" style="edgeStyle=orthogonalEdgeStyle;rounded=0;orthogonalLoop=1;jettySize=auto;html=1;endArrow=none;endFill=0;" edge="1" parent="1" source="RUbN_Ij-Akxd5s_pRf9d-2" target="RUbN_Ij-Akxd5s_pRf9d-6">
          <mxGeometry relative="1" as="geometry" />
        </mxCell>
        <mxCell id="RUbN_Ij-Akxd5s_pRf9d-27" style="edgeStyle=orthogonalEdgeStyle;rounded=0;orthogonalLoop=1;jettySize=auto;html=1;exitX=0;exitY=1;exitDx=0;exitDy=0;entryX=1;entryY=0.75;entryDx=0;entryDy=0;endArrow=none;endFill=0;" edge="1" parent="1" source="RUbN_Ij-Akxd5s_pRf9d-2" target="RUbN_Ij-Akxd5s_pRf9d-6">
          <mxGeometry relative="1" as="geometry" />
        </mxCell>
        <mxCell id="RUbN_Ij-Akxd5s_pRf9d-28" style="edgeStyle=orthogonalEdgeStyle;rounded=0;orthogonalLoop=1;jettySize=auto;html=1;exitX=1;exitY=1;exitDx=0;exitDy=0;entryX=0;entryY=0.75;entryDx=0;entryDy=0;endArrow=none;endFill=0;" edge="1" parent="1" source="RUbN_Ij-Akxd5s_pRf9d-2" target="RUbN_Ij-Akxd5s_pRf9d-11">
          <mxGeometry relative="1" as="geometry" />
        </mxCell>
        <mxCell id="RUbN_Ij-Akxd5s_pRf9d-2" value="CONTAINS" style="shape=rhombus;perimeter=rhombusPerimeter;whiteSpace=wrap;html=1;align=center;" vertex="1" parent="1">
          <mxGeometry x="590" y="290" width="120" height="60" as="geometry" />
        </mxCell>
        <mxCell id="RUbN_Ij-Akxd5s_pRf9d-22" value="" style="edgeStyle=orthogonalEdgeStyle;rounded=0;orthogonalLoop=1;jettySize=auto;html=1;endArrow=none;endFill=0;" edge="1" parent="1" source="RUbN_Ij-Akxd5s_pRf9d-3" target="RUbN_Ij-Akxd5s_pRf9d-6">
          <mxGeometry relative="1" as="geometry" />
        </mxCell>
        <mxCell id="RUbN_Ij-Akxd5s_pRf9d-58" style="edgeStyle=orthogonalEdgeStyle;rounded=0;orthogonalLoop=1;jettySize=auto;html=1;exitX=1;exitY=1;exitDx=0;exitDy=0;entryX=0;entryY=0.75;entryDx=0;entryDy=0;endArrow=none;endFill=0;" edge="1" parent="1" source="RUbN_Ij-Akxd5s_pRf9d-3" target="RUbN_Ij-Akxd5s_pRf9d-6">
          <mxGeometry relative="1" as="geometry" />
        </mxCell>
        <mxCell id="RUbN_Ij-Akxd5s_pRf9d-3" value="PLAY" style="shape=rhombus;perimeter=rhombusPerimeter;whiteSpace=wrap;html=1;align=center;" vertex="1" parent="1">
          <mxGeometry x="180" y="290" width="120" height="60" as="geometry" />
        </mxCell>
        <mxCell id="RUbN_Ij-Akxd5s_pRf9d-13" value="" style="edgeStyle=orthogonalEdgeStyle;rounded=0;orthogonalLoop=1;jettySize=auto;html=1;endArrow=none;endFill=0;" edge="1" parent="1" source="RUbN_Ij-Akxd5s_pRf9d-4" target="RUbN_Ij-Akxd5s_pRf9d-6">
          <mxGeometry relative="1" as="geometry" />
        </mxCell>
        <mxCell id="RUbN_Ij-Akxd5s_pRf9d-72" style="edgeStyle=orthogonalEdgeStyle;rounded=0;orthogonalLoop=1;jettySize=auto;html=1;exitX=0;exitY=1;exitDx=0;exitDy=0;entryX=0.25;entryY=0;entryDx=0;entryDy=0;endArrow=none;endFill=0;" edge="1" parent="1" source="RUbN_Ij-Akxd5s_pRf9d-4" target="RUbN_Ij-Akxd5s_pRf9d-6">
          <mxGeometry relative="1" as="geometry" />
        </mxCell>
        <mxCell id="RUbN_Ij-Akxd5s_pRf9d-4" value="WRITE" style="shape=rhombus;perimeter=rhombusPerimeter;whiteSpace=wrap;html=1;align=center;" vertex="1" parent="1">
          <mxGeometry x="390" y="170" width="120" height="60" as="geometry" />
        </mxCell>
        <mxCell id="RUbN_Ij-Akxd5s_pRf9d-21" value="" style="edgeStyle=orthogonalEdgeStyle;rounded=0;orthogonalLoop=1;jettySize=auto;html=1;endArrow=none;endFill=0;" edge="1" parent="1" source="RUbN_Ij-Akxd5s_pRf9d-5" target="RUbN_Ij-Akxd5s_pRf9d-6">
          <mxGeometry relative="1" as="geometry" />
        </mxCell>
        <mxCell id="RUbN_Ij-Akxd5s_pRf9d-5" value="REQUESTS" style="shape=rhombus;perimeter=rhombusPerimeter;whiteSpace=wrap;html=1;align=center;" vertex="1" parent="1">
          <mxGeometry x="390" y="410" width="120" height="60" as="geometry" />
        </mxCell>
        <mxCell id="RUbN_Ij-Akxd5s_pRf9d-68" style="edgeStyle=orthogonalEdgeStyle;rounded=0;orthogonalLoop=1;jettySize=auto;html=1;exitX=0.75;exitY=1;exitDx=0;exitDy=0;entryX=0;entryY=0;entryDx=0;entryDy=0;endArrow=none;endFill=0;" edge="1" parent="1" source="RUbN_Ij-Akxd5s_pRf9d-6" target="RUbN_Ij-Akxd5s_pRf9d-65">
          <mxGeometry relative="1" as="geometry" />
        </mxCell>
        <mxCell id="RUbN_Ij-Akxd5s_pRf9d-6" value="MUSIC PIECES" style="whiteSpace=wrap;html=1;align=center;" vertex="1" parent="1">
          <mxGeometry x="400" y="300" width="100" height="40" as="geometry" />
        </mxCell>
        <mxCell id="RUbN_Ij-Akxd5s_pRf9d-26" value="" style="edgeStyle=orthogonalEdgeStyle;rounded=0;orthogonalLoop=1;jettySize=auto;html=1;endArrow=none;endFill=0;" edge="1" parent="1" source="RUbN_Ij-Akxd5s_pRf9d-8" target="RUbN_Ij-Akxd5s_pRf9d-4">
          <mxGeometry relative="1" as="geometry" />
        </mxCell>
        <mxCell id="RUbN_Ij-Akxd5s_pRf9d-8" value="COMPOSERS" style="whiteSpace=wrap;html=1;align=center;" vertex="1" parent="1">
          <mxGeometry x="400" y="70" width="100" height="40" as="geometry" />
        </mxCell>
        <mxCell id="RUbN_Ij-Akxd5s_pRf9d-23" value="" style="edgeStyle=orthogonalEdgeStyle;rounded=0;orthogonalLoop=1;jettySize=auto;html=1;endArrow=none;endFill=0;" edge="1" parent="1" source="RUbN_Ij-Akxd5s_pRf9d-9" target="RUbN_Ij-Akxd5s_pRf9d-3">
          <mxGeometry relative="1" as="geometry" />
        </mxCell>
        <mxCell id="RUbN_Ij-Akxd5s_pRf9d-55" style="edgeStyle=orthogonalEdgeStyle;rounded=0;orthogonalLoop=1;jettySize=auto;html=1;exitX=0.5;exitY=1;exitDx=0;exitDy=0;entryX=0.5;entryY=0;entryDx=0;entryDy=0;endArrow=none;endFill=0;" edge="1" parent="1" source="RUbN_Ij-Akxd5s_pRf9d-9" target="RUbN_Ij-Akxd5s_pRf9d-53">
          <mxGeometry relative="1" as="geometry" />
        </mxCell>
        <mxCell id="RUbN_Ij-Akxd5s_pRf9d-9" value="PERFORMERS" style="whiteSpace=wrap;html=1;align=center;" vertex="1" parent="1">
          <mxGeometry y="300" width="100" height="40" as="geometry" />
        </mxCell>
        <mxCell id="RUbN_Ij-Akxd5s_pRf9d-24" value="" style="edgeStyle=orthogonalEdgeStyle;rounded=0;orthogonalLoop=1;jettySize=auto;html=1;endArrow=none;endFill=0;" edge="1" parent="1" source="RUbN_Ij-Akxd5s_pRf9d-10" target="RUbN_Ij-Akxd5s_pRf9d-5">
          <mxGeometry relative="1" as="geometry" />
        </mxCell>
        <mxCell id="RUbN_Ij-Akxd5s_pRf9d-10" value="AUDIENCE REQUESTS" style="whiteSpace=wrap;html=1;align=center;" vertex="1" parent="1">
          <mxGeometry x="400" y="530" width="100" height="40" as="geometry" />
        </mxCell>
        <mxCell id="RUbN_Ij-Akxd5s_pRf9d-25" value="" style="edgeStyle=orthogonalEdgeStyle;rounded=0;orthogonalLoop=1;jettySize=auto;html=1;endArrow=none;endFill=0;" edge="1" parent="1" source="RUbN_Ij-Akxd5s_pRf9d-11" target="RUbN_Ij-Akxd5s_pRf9d-2">
          <mxGeometry relative="1" as="geometry" />
        </mxCell>
        <mxCell id="RUbN_Ij-Akxd5s_pRf9d-79" value="" style="edgeStyle=orthogonalEdgeStyle;rounded=0;orthogonalLoop=1;jettySize=auto;html=1;endArrow=none;endFill=0;" edge="1" parent="1" source="RUbN_Ij-Akxd5s_pRf9d-11" target="RUbN_Ij-Akxd5s_pRf9d-78">
          <mxGeometry relative="1" as="geometry" />
        </mxCell>
        <mxCell id="RUbN_Ij-Akxd5s_pRf9d-11" value="ALBUMS" style="whiteSpace=wrap;html=1;align=center;" vertex="1" parent="1">
          <mxGeometry x="800" y="300" width="100" height="40" as="geometry" />
        </mxCell>
        <mxCell id="RUbN_Ij-Akxd5s_pRf9d-30" value="" style="edgeStyle=orthogonalEdgeStyle;rounded=0;orthogonalLoop=1;jettySize=auto;html=1;endArrow=none;endFill=0;" edge="1" parent="1" source="RUbN_Ij-Akxd5s_pRf9d-29" target="RUbN_Ij-Akxd5s_pRf9d-10">
          <mxGeometry relative="1" as="geometry" />
        </mxCell>
        <mxCell id="RUbN_Ij-Akxd5s_pRf9d-32" value="" style="edgeStyle=orthogonalEdgeStyle;rounded=0;orthogonalLoop=1;jettySize=auto;html=1;endArrow=none;endFill=0;" edge="1" parent="1" source="RUbN_Ij-Akxd5s_pRf9d-29" target="RUbN_Ij-Akxd5s_pRf9d-31">
          <mxGeometry relative="1" as="geometry" />
        </mxCell>
        <mxCell id="RUbN_Ij-Akxd5s_pRf9d-46" style="edgeStyle=orthogonalEdgeStyle;rounded=0;orthogonalLoop=1;jettySize=auto;html=1;exitX=0;exitY=1;exitDx=0;exitDy=0;entryX=0.25;entryY=0;entryDx=0;entryDy=0;endArrow=none;endFill=0;" edge="1" parent="1" source="RUbN_Ij-Akxd5s_pRf9d-29" target="RUbN_Ij-Akxd5s_pRf9d-31">
          <mxGeometry relative="1" as="geometry" />
        </mxCell>
        <mxCell id="RUbN_Ij-Akxd5s_pRf9d-29" value="Relationship" style="shape=rhombus;double=1;perimeter=rhombusPerimeter;whiteSpace=wrap;html=1;align=center;" vertex="1" parent="1">
          <mxGeometry x="390" y="630" width="120" height="60" as="geometry" />
        </mxCell>
        <mxCell id="RUbN_Ij-Akxd5s_pRf9d-41" style="edgeStyle=orthogonalEdgeStyle;rounded=0;orthogonalLoop=1;jettySize=auto;html=1;exitX=1;exitY=1;exitDx=0;exitDy=0;entryX=0;entryY=0.5;entryDx=0;entryDy=0;endArrow=none;endFill=0;" edge="1" parent="1" source="RUbN_Ij-Akxd5s_pRf9d-31" target="RUbN_Ij-Akxd5s_pRf9d-33">
          <mxGeometry relative="1" as="geometry" />
        </mxCell>
        <mxCell id="RUbN_Ij-Akxd5s_pRf9d-42" style="edgeStyle=orthogonalEdgeStyle;rounded=0;orthogonalLoop=1;jettySize=auto;html=1;exitX=0;exitY=1;exitDx=0;exitDy=0;entryX=1;entryY=0.5;entryDx=0;entryDy=0;endArrow=none;endFill=0;" edge="1" parent="1" source="RUbN_Ij-Akxd5s_pRf9d-31" target="RUbN_Ij-Akxd5s_pRf9d-34">
          <mxGeometry relative="1" as="geometry" />
        </mxCell>
        <mxCell id="RUbN_Ij-Akxd5s_pRf9d-31" value="LISTENERS" style="shape=ext;margin=3;double=1;whiteSpace=wrap;html=1;align=center;" vertex="1" parent="1">
          <mxGeometry x="400" y="750" width="100" height="40" as="geometry" />
        </mxCell>
        <mxCell id="RUbN_Ij-Akxd5s_pRf9d-33" value="name" style="ellipse;whiteSpace=wrap;html=1;align=center;" vertex="1" parent="1">
          <mxGeometry x="540" y="810" width="100" height="40" as="geometry" />
        </mxCell>
        <mxCell id="RUbN_Ij-Akxd5s_pRf9d-34" value="city" style="ellipse;whiteSpace=wrap;html=1;align=center;" vertex="1" parent="1">
          <mxGeometry x="260" y="810" width="100" height="40" as="geometry" />
        </mxCell>
        <mxCell id="RUbN_Ij-Akxd5s_pRf9d-37" value="" style="edgeStyle=orthogonalEdgeStyle;rounded=0;orthogonalLoop=1;jettySize=auto;html=1;endArrow=none;endFill=0;" edge="1" parent="1" target="RUbN_Ij-Akxd5s_pRf9d-31">
          <mxGeometry relative="1" as="geometry">
            <mxPoint x="450" y="850" as="sourcePoint" />
          </mxGeometry>
        </mxCell>
        <mxCell id="RUbN_Ij-Akxd5s_pRf9d-38" value="&lt;span style=&quot;border-bottom: 1px dotted&quot;&gt;phone number&lt;/span&gt;" style="ellipse;whiteSpace=wrap;html=1;align=center;" vertex="1" parent="1">
          <mxGeometry x="400" y="850" width="100" height="40" as="geometry" />
        </mxCell>
        <mxCell id="RUbN_Ij-Akxd5s_pRf9d-43" value="M" style="text;html=1;align=center;verticalAlign=middle;resizable=0;points=[];autosize=1;" vertex="1" parent="1">
          <mxGeometry x="455" y="730" width="30" height="20" as="geometry" />
        </mxCell>
        <mxCell id="RUbN_Ij-Akxd5s_pRf9d-44" value="1" style="text;html=1;align=center;verticalAlign=middle;resizable=0;points=[];autosize=1;" vertex="1" parent="1">
          <mxGeometry x="460" y="570" width="20" height="20" as="geometry" />
        </mxCell>
        <mxCell id="RUbN_Ij-Akxd5s_pRf9d-52" style="edgeStyle=orthogonalEdgeStyle;rounded=0;orthogonalLoop=1;jettySize=auto;html=1;exitX=0;exitY=0.5;exitDx=0;exitDy=0;entryX=1;entryY=0.75;entryDx=0;entryDy=0;endArrow=none;endFill=0;" edge="1" parent="1" source="RUbN_Ij-Akxd5s_pRf9d-47" target="RUbN_Ij-Akxd5s_pRf9d-10">
          <mxGeometry relative="1" as="geometry" />
        </mxCell>
        <mxCell id="RUbN_Ij-Akxd5s_pRf9d-47" value="listener" style="ellipse;whiteSpace=wrap;html=1;align=center;fontStyle=4;" vertex="1" parent="1">
          <mxGeometry x="560" y="540" width="100" height="40" as="geometry" />
        </mxCell>
        <mxCell id="RUbN_Ij-Akxd5s_pRf9d-50" style="edgeStyle=orthogonalEdgeStyle;rounded=0;orthogonalLoop=1;jettySize=auto;html=1;entryX=0;entryY=0.5;entryDx=0;entryDy=0;endArrow=none;endFill=0;" edge="1" parent="1" source="RUbN_Ij-Akxd5s_pRf9d-48" target="RUbN_Ij-Akxd5s_pRf9d-10">
          <mxGeometry relative="1" as="geometry" />
        </mxCell>
        <mxCell id="RUbN_Ij-Akxd5s_pRf9d-48" value="date-time broadcasted" style="ellipse;whiteSpace=wrap;html=1;align=center;" vertex="1" parent="1">
          <mxGeometry x="240" y="530" width="100" height="40" as="geometry" />
        </mxCell>
        <mxCell id="RUbN_Ij-Akxd5s_pRf9d-51" style="edgeStyle=orthogonalEdgeStyle;rounded=0;orthogonalLoop=1;jettySize=auto;html=1;exitX=1;exitY=0;exitDx=0;exitDy=0;entryX=0;entryY=1;entryDx=0;entryDy=0;endArrow=none;endFill=0;" edge="1" parent="1" source="RUbN_Ij-Akxd5s_pRf9d-49" target="RUbN_Ij-Akxd5s_pRf9d-10">
          <mxGeometry relative="1" as="geometry" />
        </mxCell>
        <mxCell id="RUbN_Ij-Akxd5s_pRf9d-49" value="date-time made" style="ellipse;whiteSpace=wrap;html=1;align=center;" vertex="1" parent="1">
          <mxGeometry x="240" y="590" width="100" height="40" as="geometry" />
        </mxCell>
        <mxCell id="RUbN_Ij-Akxd5s_pRf9d-53" value="specialty" style="ellipse;whiteSpace=wrap;html=1;align=center;" vertex="1" parent="1">
          <mxGeometry y="360" width="100" height="40" as="geometry" />
        </mxCell>
        <mxCell id="RUbN_Ij-Akxd5s_pRf9d-56" style="edgeStyle=orthogonalEdgeStyle;rounded=0;orthogonalLoop=1;jettySize=auto;html=1;exitX=0.5;exitY=1;exitDx=0;exitDy=0;entryX=0.5;entryY=0;entryDx=0;entryDy=0;endArrow=none;endFill=0;" edge="1" parent="1" source="RUbN_Ij-Akxd5s_pRf9d-54" target="RUbN_Ij-Akxd5s_pRf9d-9">
          <mxGeometry relative="1" as="geometry" />
        </mxCell>
        <mxCell id="RUbN_Ij-Akxd5s_pRf9d-54" value="name" style="ellipse;whiteSpace=wrap;html=1;align=center;fontStyle=4;" vertex="1" parent="1">
          <mxGeometry y="230" width="100" height="40" as="geometry" />
        </mxCell>
        <mxCell id="RUbN_Ij-Akxd5s_pRf9d-57" value="M" style="text;html=1;align=center;verticalAlign=middle;resizable=0;points=[];autosize=1;" vertex="1" parent="1">
          <mxGeometry x="100" y="300" width="30" height="20" as="geometry" />
        </mxCell>
        <mxCell id="RUbN_Ij-Akxd5s_pRf9d-59" value="M" style="text;html=1;align=center;verticalAlign=middle;resizable=0;points=[];autosize=1;" vertex="1" parent="1">
          <mxGeometry x="370" y="300" width="30" height="20" as="geometry" />
        </mxCell>
        <mxCell id="RUbN_Ij-Akxd5s_pRf9d-62" style="edgeStyle=orthogonalEdgeStyle;rounded=0;orthogonalLoop=1;jettySize=auto;html=1;exitX=1;exitY=0;exitDx=0;exitDy=0;entryX=0;entryY=1;entryDx=0;entryDy=0;endArrow=none;endFill=0;" edge="1" parent="1" source="RUbN_Ij-Akxd5s_pRf9d-60" target="RUbN_Ij-Akxd5s_pRf9d-6">
          <mxGeometry relative="1" as="geometry" />
        </mxCell>
        <mxCell id="RUbN_Ij-Akxd5s_pRf9d-60" value="title" style="ellipse;whiteSpace=wrap;html=1;align=center;fontStyle=4;" vertex="1" parent="1">
          <mxGeometry x="280" y="370" width="100" height="40" as="geometry" />
        </mxCell>
        <mxCell id="RUbN_Ij-Akxd5s_pRf9d-66" style="edgeStyle=orthogonalEdgeStyle;rounded=0;orthogonalLoop=1;jettySize=auto;html=1;exitX=1;exitY=1;exitDx=0;exitDy=0;entryX=0.25;entryY=0;entryDx=0;entryDy=0;endArrow=none;endFill=0;" edge="1" parent="1" source="RUbN_Ij-Akxd5s_pRf9d-63" target="RUbN_Ij-Akxd5s_pRf9d-6">
          <mxGeometry relative="1" as="geometry" />
        </mxCell>
        <mxCell id="RUbN_Ij-Akxd5s_pRf9d-63" value="performers" style="ellipse;whiteSpace=wrap;html=1;align=center;" vertex="1" parent="1">
          <mxGeometry x="290" y="230" width="100" height="40" as="geometry" />
        </mxCell>
        <mxCell id="RUbN_Ij-Akxd5s_pRf9d-67" style="edgeStyle=orthogonalEdgeStyle;rounded=0;orthogonalLoop=1;jettySize=auto;html=1;exitX=0;exitY=1;exitDx=0;exitDy=0;entryX=0.75;entryY=0;entryDx=0;entryDy=0;endArrow=none;endFill=0;" edge="1" parent="1" source="RUbN_Ij-Akxd5s_pRf9d-64" target="RUbN_Ij-Akxd5s_pRf9d-6">
          <mxGeometry relative="1" as="geometry" />
        </mxCell>
        <mxCell id="RUbN_Ij-Akxd5s_pRf9d-64" value="composers" style="ellipse;whiteSpace=wrap;html=1;align=center;" vertex="1" parent="1">
          <mxGeometry x="520" y="220" width="100" height="40" as="geometry" />
        </mxCell>
        <mxCell id="RUbN_Ij-Akxd5s_pRf9d-65" value="length" style="ellipse;whiteSpace=wrap;html=1;align=center;" vertex="1" parent="1">
          <mxGeometry x="490" y="360" width="100" height="40" as="geometry" />
        </mxCell>
        <mxCell id="RUbN_Ij-Akxd5s_pRf9d-70" value="M" style="text;html=1;align=center;verticalAlign=middle;resizable=0;points=[];autosize=1;" vertex="1" parent="1">
          <mxGeometry x="450" y="110" width="30" height="20" as="geometry" />
        </mxCell>
        <mxCell id="RUbN_Ij-Akxd5s_pRf9d-71" value="1" style="text;html=1;align=center;verticalAlign=middle;resizable=0;points=[];autosize=1;" vertex="1" parent="1">
          <mxGeometry x="430" y="280" width="20" height="20" as="geometry" />
        </mxCell>
        <mxCell id="RUbN_Ij-Akxd5s_pRf9d-77" style="edgeStyle=orthogonalEdgeStyle;rounded=0;orthogonalLoop=1;jettySize=auto;html=1;exitX=0;exitY=0.5;exitDx=0;exitDy=0;entryX=1;entryY=0.5;entryDx=0;entryDy=0;endArrow=none;endFill=0;" edge="1" parent="1" source="RUbN_Ij-Akxd5s_pRf9d-73" target="RUbN_Ij-Akxd5s_pRf9d-8">
          <mxGeometry relative="1" as="geometry" />
        </mxCell>
        <mxCell id="RUbN_Ij-Akxd5s_pRf9d-73" value="name" style="ellipse;whiteSpace=wrap;html=1;align=center;fontStyle=4;" vertex="1" parent="1">
          <mxGeometry x="530" y="70" width="100" height="40" as="geometry" />
        </mxCell>
        <mxCell id="RUbN_Ij-Akxd5s_pRf9d-76" style="edgeStyle=orthogonalEdgeStyle;rounded=0;orthogonalLoop=1;jettySize=auto;html=1;exitX=1;exitY=0.5;exitDx=0;exitDy=0;entryX=0;entryY=0.5;entryDx=0;entryDy=0;endArrow=none;endFill=0;" edge="1" parent="1" source="RUbN_Ij-Akxd5s_pRf9d-74" target="RUbN_Ij-Akxd5s_pRf9d-8">
          <mxGeometry relative="1" as="geometry" />
        </mxCell>
        <mxCell id="RUbN_Ij-Akxd5s_pRf9d-74" value="short biography" style="ellipse;whiteSpace=wrap;html=1;align=center;" vertex="1" parent="1">
          <mxGeometry x="260" y="70" width="100" height="40" as="geometry" />
        </mxCell>
        <mxCell id="RUbN_Ij-Akxd5s_pRf9d-78" value="title" style="ellipse;whiteSpace=wrap;html=1;align=center;fontStyle=4;" vertex="1" parent="1">
          <mxGeometry x="800" y="230" width="100" height="40" as="geometry" />
        </mxCell>
        <mxCell id="RUbN_Ij-Akxd5s_pRf9d-83" style="edgeStyle=orthogonalEdgeStyle;rounded=0;orthogonalLoop=1;jettySize=auto;html=1;exitX=0.5;exitY=0;exitDx=0;exitDy=0;entryX=0.5;entryY=1;entryDx=0;entryDy=0;endArrow=none;endFill=0;" edge="1" parent="1" source="RUbN_Ij-Akxd5s_pRf9d-80" target="RUbN_Ij-Akxd5s_pRf9d-11">
          <mxGeometry relative="1" as="geometry" />
        </mxCell>
        <mxCell id="RUbN_Ij-Akxd5s_pRf9d-80" value="number of tracks" style="ellipse;whiteSpace=wrap;html=1;align=center;" vertex="1" parent="1">
          <mxGeometry x="800" y="370" width="100" height="40" as="geometry" />
        </mxCell>
        <mxCell id="RUbN_Ij-Akxd5s_pRf9d-84" value="1" style="text;html=1;align=center;verticalAlign=middle;resizable=0;points=[];autosize=1;" vertex="1" parent="1">
          <mxGeometry x="780" y="300" width="20" height="20" as="geometry" />
        </mxCell>
        <mxCell id="RUbN_Ij-Akxd5s_pRf9d-85" value="M" style="text;html=1;align=center;verticalAlign=middle;resizable=0;points=[];autosize=1;" vertex="1" parent="1">
          <mxGeometry x="500" y="300" width="30" height="20" as="geometry" />
        </mxCell>
      </root>
    </mxGraphModel>
  </diagram>
</mxfile>
